<?xml version="1.0" standalone="no"?><!DOCTYPE svg [
        <!ELEMENT svg (defs|path)*>
        <!ATTLIST svg
                t CDATA #REQUIRED
                class CDATA #REQUIRED
                style CDATA #REQUIRED
                viewBox CDATA #REQUIRED
                version CDATA #REQUIRED
                xmlns CDATA #REQUIRED
                p-id CDATA #REQUIRED
                xmlns:xlink CDATA #REQUIRED
                width CDATA #REQUIRED
                height CDATA #REQUIRED>
        <!ELEMENT defs (style)*>
        <!ELEMENT style (#PCDATA)>
        <!ATTLIST style
                type CDATA #REQUIRED>
        <!ELEMENT path (#PCDATA)>
        <!ATTLIST path
                d CDATA #REQUIRED
                p-id CDATA #REQUIRED>
        ]>
<svg t="1514359357988" class="icon" style="" viewBox="0 0 1035 1024" version="1.1" xmlns="http://www.w3.org/2000/svg" p-id="2592" xmlns:xlink="http://www.w3.org/1999/xlink" width="16.171875" height="16"><defs><style type="text/css"></style></defs><path d="M519.025989 0C347.032659 0 206.79851 140.234149 206.79851 312.22748a312.077509 312.077509 0 0 0 164.044883 275.184714C185.629567 640.328782 40.100299 793.794962 0.404206 989.599027c-2.641792 15.873823 7.936911 31.747645 23.810734 34.400973h5.295119c13.232031 0 26.464062-10.578703 29.105854-23.810734 42.337885-216.973007 235.488622-375.734307 457.756748-375.734307 171.993331 0 312.22748-140.234149 312.22748-312.227479C828.600141 137.592357 691.007784 0 519.025989 0z m0 563.589924c-140.245685 0.011536-253.969627-113.770087-253.969627-254.004236S378.837985 55.569916 519.072134 55.569916 773.041761 169.374611 773.041761 309.585688 656.618347 563.60146 519.025989 563.60146z m277.849579 79.38065c-13.232031-7.936911-31.747645-5.29512-39.684557 7.936911s-5.29512 31.747645 7.936911 39.684557c108.440359 68.790411 185.213825 179.964851 211.677888 304.290568 2.641792 13.232031 15.873823 23.810734 29.105854 23.810734h5.295119c15.873823-2.641792 26.464062-18.527151 23.810734-34.400973-29.128926-140.222613-116.446487-264.582939-238.141949-341.321797z" p-id="2593"></path></svg>